<?xml version="1.0" encoding="UTF-8"?>
<svg id="Layer_1" xmlns="http://www.w3.org/2000/svg" version="1.1" viewBox="0 0 354.33 498.9">
  <!-- Generator: Adobe Illustrator 30.0.0, SVG Export Plug-In . SVG Version: 2.1.1 Build 123)  -->
  <defs>
    <style>
      .st0, .st1, .st2 {
        fill: #003625;
      }

      .st1 {
        stroke-width: .5px;
      }

      .st1, .st2 {
        stroke: #003625;
        stroke-miterlimit: 10;
      }

      .st2 {
        stroke-width: .75px;
      }
    </style>
  </defs>
  <path class="st2" d="M134.45,266.74l-1.07-1.52,8.74-2.9-1.42-1.42c2.15-.03,6.92-2.17,7.87-3.93.3-.55-.21-.49-.75-.49l-3,.47.19-3.07c-2.49.54-14.65,10.48-23.01,14.51-24.27,11.69-53.92,15.59-50.14-13.87,2.47-19.28,30.66-38.43,49.25-32.86,13.39,4.01,3.92,19.52-6.51,19.8-1.42.04-5.56-.39-4.6-2.36,8.81,4.05,22.67-11.65,10.07-15.83-18.48-6.14-50.12,25.1-40.98,43.86,4.84,9.94,21.54,6.38,30.03,3.93,10.77-3.11,20.58-9.12,29.93-15.55-1.96-.57-4.29.17-5.75-1.73l4.6-1.44c-.42-1.31-3.22-.83-2.87-2.87,5.15.21,10.23-1,14.96-2.89l-1.14-1.14c2.7-.61,3.35-.56,5.18-2.69,1.46-1.7.99-2.07.19-1.92-.25.05-.52.07-.96.18-1.45.38-3,2.08-4.99,1.54l1.72-2.29h-5.18s1.15-2.31,1.15-2.31c-.47-.42-4.82.88-5.18-1.15l2.87-1.15c-1.04-.49-3.32,0-2.88-1.73l13.24-3.46-1.15-1.71c2.86-.29,4.73-.69,4.55-3.59l.06-.44-1.56.24-3.32.37-.62-1.21-4.86.02c-1.29-1.28,3.47-1.99,3.46-2.58l-3.45-1.73,9.78-3.44c1.09-.99,2.77-1.36,1.7-2.78l3.44-2.48-1.77-.07-2.22-.15.57-2.29c-3.29,1.6-2.64-1.28-5.76-1.16l.81-.82.38-.64-.61-1.98,5.18-1.45-1.15-1.43c3.53-.23,7.02-1.47,9.21-4.32l-4.03-.29.58-2.29c-1.13.03-2.54-.27-2.3-1.73,3.01-.38,5.89-2.31,8.05-4.33l-1.95-.24c-.55-1.7-1.32-.94-2.65-1.48l5.75-4.62-1.15-1.14c2.12-2.05,2.87-4.73,3.39-7.55.27-1.45-.8-4.73,1.21-4.26.13,5.32,1.54,11.43,5.18,15.26l-2.3.57c1.31,2.89,4.25,3.64,6.33,5.76l-1.73.29,1.16,2.29c-.47.34-4.1-.75-3.45.86l8.63,5.77c-1.9,1.21-.56,2.69-4.03,2.02l.59,1.14-1.74.29c.81,1.06,2.64,1.48,3.45,2.34.53.56-.03,1.31.88,1.92,1.61,1.07,5.22,1.81,7.18,1.8.24,1.48-1.25,1.77-2.31,1.73l.58,1.72-4.6-.57.57,2.3-2.87-1.73.61,1.98-1.19.6c3.78,3.12,8.95,4.85,13.81,4.9.43,2-2.09,1.09-2.3,2.29l6.33,2.02-3.45,1.73,1.14,1.43-5.18-1.14.29,2.29-2.59-1.72-.53,2.05,1.12.59-.59,1.38c2.1.51,3.84,1.79,5.89,2.47,1.21.4,6.53,1.32,6.78,1.57,1.24,1.27-3.05,1.71-3.45,1.73l2.3,2.29h-4.6s1.14,2.88,1.14,2.88l-6.62-2.3.29,2.87-1.26.2,7.01,3.29-.3,1.71c3.34,1.83,7.38,3.03,11.24,2.86l-1.44,2.3,5.47,1.73c-.9,1.68-3.43,2.08-5.18,2.3l.58,1.72-6.33-1.14.57,2.87-3.17-2.3c-1.71-.4,0,2.12-1.71,1.71-1.1-.26-2.05-1.68-2.6-2.62l-1.73.33,1.16,2-1.15.86c1.71.52,5.21.91,6.6,1.7.46.26-.34,1.04.26,1.47,2.68,1.92,9.99,2.09,13.28,2.03.35,2.04-2.45,1.56-2.87,2.87l2.3.75c-3.86,3.11-6.89,3.02-6.91,2.72l.86,1.28-7.76-1.86.79,2.53c-1.12-.75-3.48-1.47-4.25.34.91.08,5.44,1.96,4.75,2.72l-6.48.75c6.24,5.42,16.63-1.42,21.88-6.04,16.19-14.27,22.85-37.55,40-50.95,1.1.76.9,1.3.74,2.44-.48,3.51-3.69,10.62-4.78,14.81-1.57,6.04-2.75,12.26-3.73,18.43,5.92-7.03,11.03-14.8,17.25-21.6,2.01-2.2,14.58-15.42,17.28-12.93-4.8,11.49-10.7,22.89-13.53,35.11-1.37,5.92-4.07,20.64,6.85,15.48,2.65-1.25,4.9-5.05,6.4-5.69,2.52-1.08-2.21,4.52-2.6,4.88-4.79,4.38-14.63,5.14-16.99-2-2.76-8.38,3.99-24.15,7.68-32.06,1.4-2.99,3.33-5.73,4.41-8.83-8.67,7.18-15.51,16.62-22.05,25.73-1.76,2.46-8.51,13.89-10.27,14.48-.44.15-.9.1-1.35.09,0,0,2.71-17.95,4.07-23.85.86-3.73,4.28-14.72,4.28-14.72-11.53,14.56-19.34,35.41-35.45,45.72-8.47,5.42-19.19,7.77-27.87,1.49-.28,4.17-3.42-1.07-5.18-1.73l-.58,1.19-2.58-1.19,1.19.93-4.07-.92,1.72,4.9-1.76.6c-.59,3.12,1,18.95,2.66,21.54,1.88,2.94,7.37,2.62,10.27,2.97.69.08,3.15.25,3.23,1.08h-40.29c.09-.82,2.54-.99,3.23-1.08,3.16-.39,8.65.03,10.46-3.36s2.4-15.78,1.9-19.5c-.15-1.14-1.24-.73-1.22-1.11.05-1.01,2.15-3.39,1.17-5.47-3.36.47-6.12,3.24-9.78,2.87l1.73-2.87c-2.73-1.03-3.38.26-5.48,1.73l-.56-1.16c-1.58,1.55-4.07.44-6.04,2.31v-1.74s-5.18.58-5.18.58c-.32-1.54.4-.99,1.13-1.43,1.5-.9,3.03-1.86,4.61-2.61l-2.08-.69.28-2.41-3.81,3.01-9.35.67c-.3-1.92,3.06-1.45,3.45-3.45l-3.41-.54.54-.03c-3.09.23-4.75-.16-7.63-1.25"/>
  <g>
    <path class="st0" d="M168.05,313.58l-.29-1.72c1.57,1.95,4.36,3.22,6.82,2.66,2.14-.49,3.42-2.41,5.56-2.66l-1.15,2.01c2.24.54,4.38-2.66,6.9-2.59.75,1.55-5,3.27-2.62,3.43l7.22-2.85-4.6,4.02,7.16-2.34.61,1.22,3.73-1.18-2.3,2.29,3.45-.57-.57,1.72,4.03-.57-1.72,1.72c1.06.28,4.4-.21,4.02,1.73h-6.33c.63,1.31,3.72.54,3.45,2.88l-5.75-1.72.57,2.29-4.03-2.29.29,2.29c-2.59-1.21-4.5-5.09-7.2-4.89l2.87,2.89c.17.79-.04,1.09-.85.85-2.73-.81-4.6-6.08-8.93-4.59l3.45,4.6c-1.94.05-2.78-2.52-4.6-.86l4.03,4.89-5.18-1.72,1.72,4.02-2.59-2.31-.57,2.31-1.44-2.87c0,1.85.16,4.68-1.73,5.75v-4.03s-1.44,1.15-1.44,1.15l-.3-1.74-2.3.57,1.72-3.45-4.02,2.3,4.6-5.47c.03-2.03-1.74.92-2.01-1.43l-3.17,2.3,2.3-4.02c-2.64-1.1-6.44,4.61-7.77,4.59-1.99-.03,1.05-2.94,1.44-3.16-2.15-.36-3.67,3.46-6.05,4.32l-.29-1.73-3.45,1.73,2.3-3.45-7.48,2.87c-.27-2.33,2.82-1.57,3.45-2.87-2.2-.3-5.13.8-6.9-.87l4.6-.87-1.72-1.72,3.45.58v-1.73s3.46.57,3.46.57l-1.73-2.29,5.18,1.14-1.72-2.29,5.75,1.72-2.3-2.87,6.33,2.29c-.59-1.24-2.69-1.02-1.44-2.87l6.05,2.87Z"/>
    <path class="st1" d="M148.47,309.91l-4.21.56,1.58,1.11c-6.67-.33-13.67-2.19-20.14-4.07-11.26-3.28-27.98-9.77-36.5-18.34-.44-.44-2.44-2.17-1.86-2.78l12.64,8.69c15.24,8.1,31.76,11.83,48.5,14.84Z"/>
    <path class="st1" d="M265.67,287.51c.69.63-4.08,4.1-4.79,4.6-15.53,11.09-40.22,16.65-59.3,19.46l.6-1.09h-4.75s28.89-5.91,38.29-8.75c3.88-1.17,11.51-3.96,15.15-5.73,3.84-1.87,14.81-8.5,14.81-8.5Z"/>
  </g>
</svg>