<?xml version="1.0" encoding="UTF-8"?>
<svg id="Layer_1" xmlns="http://www.w3.org/2000/svg" version="1.1" viewBox="0 0 354.33 498.9">
  <!-- Generator: Adobe Illustrator 30.0.0, SVG Export Plug-In . SVG Version: 2.1.1 Build 123)  -->
  <defs>
    <style>
      .st0, .st1, .st2, .st3 {
        fill: #003625;
      }

      .st1, .st4, .st5, .st3, .st6 {
        stroke: #003625;
        stroke-miterlimit: 10;
      }

      .st7 {
        font-size: 6px;
        letter-spacing: .06em;
      }

      .st4 {
        fill: #fff;
      }

      .st4, .st5, .st6 {
        stroke-width: 3px;
      }

      .st8 {
        font-size: 5px;
        letter-spacing: .05em;
      }

      .st5 {
        fill: none;
      }

      .st2 {
        font-family: Futura-Bold, Futura;
        font-weight: 700;
      }

      .st3 {
        stroke-width: 2px;
      }

      .st6 {
        fill: #fbf7f4;
      }
    </style>
  </defs>
  <g>
    <g>
      <path class="st1" d="M94.52,235.74v-2.76l-4.77-3.43v-5.09h-6.75v4.98l-4.77,3.38v2.83l-3.79,2.17v2.44h3.79s5.52.01,5.52.01v-3.75c0-3.27,2.47-3.32,2.47-3.32,3.22,0,3,3.22,3,3.22v3.86h5.31s3.63-.01,3.63-.01v-2.44l-3.63-2.08ZM88.52,227.09v2.06s-4.11,0-4.11,0v-2.06s.25-2.12,1.98-2.14c1.83-.02,2.14,2.14,2.14,2.14Z"/>
      <polygon class="st1" points="81.79 223.76 90.98 223.76 86.72 217.11 86.72 214.35 87.96 214.35 87.96 213.63 86.74 213.63 86.74 211.63 86.24 211.63 86.25 213.64 85.03 213.64 85.02 214.35 86.26 214.35 86.26 217.04 81.79 223.76"/>
    </g>
    <text class="st2" transform="translate(55.92 249.56)"><tspan class="st7"><tspan x="0" y="0">ЦЪРКОВЕН БРАК</tspan></tspan><tspan class="st8"><tspan x="6.05" y="7">“СВЕТА СОФИЯ”</tspan></tspan><tspan class="st7"><tspan x="20.68" y="14">15:00</tspan></tspan></text>
  </g>
  <g>
    <g>
      <path class="st1" d="M182.71,208.39l-.37-8.67c2.31-.41,4.01-2.3,3.92-4.49l.7-12.47h-.03s0-.02,0-.03c-.02-.52-1.95-.67-3.64-.71h0s0,0-.01,0c-.03,0-.06,0-.08,0,0,0,0,0,0,0-.45,0-2.42.01-3.5.1-.95.08-2.26.16-3.15.31-.9.17-1.59.39-1.58.71,0,.02,0,.03,0,.05h-.04s1.6,12.38,1.6,12.38c.09,2.19,1.95,3.95,4.29,4.2l.37,8.67-3.88.5.03.76c0,.2,2.1.29,4.67.2,2.57-.09,4.65-.33,4.64-.53l-.03-.76-3.91-.22Z"/>
      <path class="st1" d="M194.94,206.42l.5-7.51c2.03-.18,3.68-1.67,3.81-3.57l1.78-10.7h-.03s0-.02,0-.03c.03-.45-1.62-.73-3.08-.9h0s0,0,0,0c-.02,0-.05,0-.07,0,0,0,0,0,0,0-.39-.03-2.09-.18-3.03-.18-.83,0-1.96-.04-2.75.02-.8.07-1.41.22-1.43.49,0,.01,0,.03,0,.04h-.03s.2,10.8.2,10.8c-.13,1.9,1.31,3.56,3.3,3.96l-.5,7.51-3.4.13-.04.66c-.01.17,1.78.41,4.01.54,2.23.12,4.04.08,4.05-.09l.04-.66-3.35-.5Z"/>
    </g>
    <g>
      <path class="st0" d="M173.5,215.75l1.43-1.87h1.45l-1.79,2.14,1.96,2.38h-1.52l-1.53-1.96v1.96h-1.18v-4.52h1.18v1.87Z"/>
      <path class="st0" d="M177.2,216.15c0-.34.06-.65.19-.94s.3-.54.52-.76c.22-.22.48-.38.79-.51.31-.12.64-.18,1.01-.18s.7.06,1.01.18c.31.12.57.29.79.51.22.22.39.47.52.76s.19.6.19.94-.06.65-.19.94c-.12.29-.3.54-.52.76-.22.22-.49.38-.79.51-.31.12-.64.18-1.01.18s-.71-.06-1.01-.18c-.31-.12-.57-.29-.79-.51-.22-.22-.39-.47-.52-.76-.12-.29-.19-.6-.19-.94ZM178.43,216.15c0,.18.03.35.1.5.07.15.16.28.28.4.12.11.25.2.41.26.15.06.32.09.49.09s.33-.03.49-.09c.15-.06.29-.15.41-.26.12-.11.21-.24.28-.4.07-.15.1-.32.1-.5s-.03-.35-.1-.5c-.07-.15-.16-.28-.28-.4-.12-.11-.25-.2-.41-.26-.15-.06-.32-.09-.49-.09s-.34.03-.49.09c-.15.06-.29.15-.41.26-.12.11-.21.24-.28.4-.07.15-.1.32-.1.5Z"/>
      <path class="st0" d="M184.46,215.75l1.43-1.87h1.45l-1.79,2.14,1.96,2.38h-1.52l-1.53-1.96v1.96h-1.18v-4.52h1.18v1.87Z"/>
      <path class="st0" d="M190.08,214.88v3.53h-1.18v-3.53h-.97v-1h3.11v1h-.97Z"/>
      <path class="st0" d="M194.47,214.88h-1.4v.76h1.32v1h-1.32v.78h1.4v1h-2.57v-4.52h2.57v1Z"/>
      <path class="st0" d="M196.83,213.89v2.77l2.17-2.77h1.18v4.52h-1.18v-2.77l-2.17,2.77h-1.18v-4.52h1.18ZM197.42,212.41c.06.27.24.4.53.4s.47-.13.53-.4h.76c-.02.32-.14.58-.37.77-.22.18-.53.28-.92.28s-.69-.09-.92-.28c-.22-.18-.35-.44-.37-.77h.76Z"/>
      <path class="st0" d="M201.19,217.52s.03,0,.05,0c.23,0,.34-.17.34-.52v-3.11h3.7v4.52h-1.18v-3.53h-1.36v2.14c0,.22-.03.43-.1.61-.07.18-.17.34-.29.48-.13.14-.28.24-.46.31-.18.07-.39.11-.62.11h-.09v-1.02Z"/>
      <path class="st0" d="M160.48,225.41h-.98v-2.94h-1.42v2.94h-.98v-3.77h3.38v3.77Z"/>
      <path class="st0" d="M163.86,224.76h-1.4l-.22.65h-1.04l1.43-3.77h1.07l1.43,3.77h-1.04l-.22-.65ZM163.6,224.01l-.44-1.25-.44,1.25h.88Z"/>
      <path class="st0" d="M168.55,222.9c-.23-.28-.51-.42-.84-.42-.15,0-.28.03-.41.08-.12.05-.23.13-.32.22s-.16.2-.21.33c-.05.13-.08.26-.08.41s.03.29.08.42c.05.13.12.24.22.33.09.09.2.17.32.22.12.05.26.08.4.08.31,0,.6-.13.85-.4v1.16l-.1.04c-.15.05-.29.09-.42.12s-.26.04-.38.04c-.26,0-.51-.05-.75-.15s-.45-.24-.63-.42-.33-.39-.44-.63c-.11-.25-.17-.51-.17-.8s.05-.56.16-.8.25-.45.43-.62c.18-.18.39-.31.63-.41.24-.1.49-.15.75-.15.15,0,.3.02.44.05.15.03.3.08.46.15v1.17Z"/>
      <path class="st0" d="M171.76,224.76h-1.4l-.22.65h-1.04l1.43-3.77h1.07l1.43,3.77h-1.04l-.22-.65ZM171.5,224.01l-.44-1.25-.44,1.25h.88Z"/>
      <path class="st0" d="M174.72,225.41h-.98v-3.77h1.56c.42,0,.75.11.97.33.22.22.34.53.34.93s-.11.71-.34.93c-.23.22-.55.33-.97.33h-.58v1.25ZM174.72,223.37h.33c.36,0,.54-.16.54-.47s-.18-.47-.54-.47h-.33v.94Z"/>
      <path class="st0" d="M179.55,222.47h-1.17v.63h1.1v.83h-1.1v.65h1.17v.83h-2.15v-3.77h2.15v.83Z"/>
      <path class="st0" d="M180.32,224.67s.03,0,.05,0c.19,0,.28-.14.28-.43v-2.6h3.08v3.77h-.98v-2.94h-1.13v1.78c0,.19-.03.36-.08.51s-.14.29-.25.4-.24.2-.39.26c-.15.06-.32.09-.51.09h-.08v-.85Z"/>
      <path class="st0" d="M186.56,224.67s.03,0,.05,0c.19,0,.28-.14.28-.43v-2.6h3.08v3.77h-.98v-2.94h-1.13v1.78c0,.19-.03.36-.08.51s-.14.29-.25.4-.24.2-.39.26c-.15.06-.32.09-.51.09h-.08v-.85Z"/>
      <path class="st0" d="M193.19,222.47h-1.17v.63h1.1v.83h-1.1v.65h1.17v.83h-2.15v-3.77h2.15v.83Z"/>
      <path class="st0" d="M195.15,221.64v2.31l1.8-2.31h.98v3.77h-.98v-2.31l-1.8,2.31h-.98v-3.77h.98ZM195.64,220.41c.05.22.2.33.44.33s.4-.11.45-.33h.63c-.01.27-.12.48-.31.64-.18.15-.44.23-.77.23s-.58-.08-.77-.23c-.19-.15-.29-.37-.3-.64h.63Z"/>
      <path class="st0" d="M199.98,223.2l1.2-1.56h1.21l-1.5,1.79,1.63,1.98h-1.27l-1.28-1.63v1.63h-.98v-3.77h.98v1.56Z"/>
      <path class="st0" d="M206.19,223.2l1.2-1.56h1.21l-1.5,1.79,1.63,1.98h-1.27l-1.28-1.63v1.63h-.98v-3.77h.98v1.56Z"/>
      <path class="st0" d="M209.23,224.67s.03,0,.05,0c.19,0,.28-.14.28-.43v-2.6h3.08v3.77h-.98v-2.94h-1.13v1.78c0,.19-.03.36-.08.51s-.14.29-.25.4-.24.2-.39.26c-.15.06-.32.09-.51.09h-.08v-.85Z"/>
      <path class="st0" d="M213.33,221.64h1.17l.77,1.42.84-1.42h1.08l-2.46,3.77h-.99l.92-1.46-1.34-2.31Z"/>
      <path class="st0" d="M219.5,222.9c.42,0,.73.11.95.32s.33.53.33.94c0,.19-.03.36-.08.52s-.14.28-.25.39c-.11.11-.25.19-.41.25s-.35.09-.56.09h-1.68v-3.77h2.28v.83h-1.3v.42h.73ZM218.77,224.62h.45c.36,0,.54-.16.54-.47,0-.16-.04-.28-.13-.36-.08-.07-.22-.11-.41-.11h-.44v.94Z"/>
      <path class="st0" d="M180.56,228.88h-.66v-1h1.84v4.52h-1.18v-3.53Z"/>
      <path class="st0" d="M185.75,228.88h-1.89v-1h3.71l-2.59,4.52h-1.3l2.06-3.53Z"/>
      <path class="st0" d="M188.1,229.81c0-.1.02-.19.05-.27s.09-.16.15-.23c.06-.06.14-.11.22-.15s.18-.05.27-.05.19.02.27.05.16.09.22.15c.06.06.11.14.15.23s.05.18.05.27-.02.19-.05.27c-.04.09-.09.16-.15.23-.06.06-.14.11-.22.15-.09.04-.18.05-.27.05s-.19-.02-.27-.05c-.09-.04-.16-.09-.22-.15-.06-.06-.11-.14-.15-.23-.04-.09-.05-.18-.05-.27ZM188.1,231.84c0-.1.02-.19.05-.27.04-.09.09-.16.15-.23s.14-.11.22-.15c.09-.04.18-.05.27-.05s.19.02.27.05c.09.04.16.09.22.15s.11.14.15.23c.04.09.05.18.05.27s-.02.19-.05.27c-.04.09-.09.16-.15.23-.06.06-.14.11-.22.15-.09.04-.18.05-.27.05s-.19-.02-.27-.05c-.09-.04-.16-.09-.22-.15-.06-.06-.11-.14-.15-.23-.04-.09-.05-.18-.05-.27Z"/>
      <path class="st0" d="M191.95,229.65s.06,0,.08,0h.06c.15,0,.27-.04.36-.13.09-.09.14-.2.14-.34s-.04-.25-.13-.33-.2-.13-.33-.13c-.14,0-.26.05-.35.14s-.13.22-.13.37h-1.09c.03-.24.09-.45.18-.63s.21-.34.34-.47c.14-.13.3-.22.49-.29.19-.07.4-.1.62-.1s.43.03.61.09c.18.06.34.15.47.26.13.11.23.25.3.41s.11.34.11.54c0,.22-.04.39-.12.53-.08.14-.2.26-.35.36.23.07.41.2.54.39s.2.42.2.69c0,.22-.04.43-.13.61-.09.18-.21.34-.37.47-.16.13-.35.23-.56.31-.22.07-.46.11-.72.11-.35,0-.66-.07-.94-.2-.28-.14-.5-.35-.67-.65-.08-.13-.13-.26-.15-.4-.03-.13-.04-.27-.04-.4h1.16c0,.21.07.37.19.48s.27.17.47.17c.21,0,.36-.06.46-.17.1-.11.14-.25.14-.41,0-.2-.06-.34-.17-.44-.12-.1-.25-.15-.41-.15-.04,0-.08,0-.11,0s-.08.01-.12.02v-.74Z"/>
      <path class="st0" d="M194.69,230.14c0-.36.05-.69.14-.98s.23-.54.4-.75.37-.37.61-.48c.23-.11.49-.17.78-.17s.54.06.77.17c.24.11.44.27.61.48s.3.46.39.75c.09.29.14.62.14.98s-.05.69-.14.98c-.09.29-.23.55-.39.76-.17.21-.37.37-.61.49-.24.11-.49.17-.77.17s-.54-.06-.78-.17c-.23-.11-.44-.28-.61-.49-.17-.21-.3-.46-.4-.76s-.14-.62-.14-.98ZM195.85,230.14c0,.2.02.38.05.55.04.16.09.31.15.43.07.12.14.21.24.28.09.07.2.1.31.1s.21-.03.31-.1c.09-.07.17-.16.24-.28s.11-.26.15-.43c.04-.16.05-.35.05-.55s-.02-.38-.05-.54-.09-.31-.15-.43c-.06-.12-.14-.21-.24-.28-.09-.07-.2-.1-.31-.1s-.22.03-.31.1c-.09.07-.17.16-.24.28-.07.12-.12.26-.15.43s-.05.35-.05.54Z"/>
    </g>
  </g>
  <g>
    <g>
      <path class="st3" d="M180.12,286.49c-1.33-5.25-6.35-8.59-11.59-7.95l1.12-2.54c.12-.26.22-.59.19-.63-.03-.04-.25-.2-.49-.35l-.73-.45c-.24-.15-.45-.28-.46-.29-.01,0-.05-.01-.05-.01h0s0,0,0,0h-.02s-.27.06-.54.13l-.52.13c-.28.07-.6.2-.79.25-.2.05-.65.12-.93.19l-.52.13c-.28.07-.51.13-.52.13-.01,0-.04.02-.04.02,0,0,0,0,0,0,0,0,0,0,0,0,0,0,0,0-.02.02,0,0-.14.24-.29.49l-.42.75c-.14.25-.26.49-.27.54,0,.05.24.29.47.46l2.2,1.7c-4.91,1.93-7.74,7.26-6.41,12.51,1.44,5.7,7.23,9.14,12.93,7.7,5.7-1.44,9.14-7.23,7.7-12.93ZM168.68,275.01l.15.09c.24.15.21.33-.06.4l-.1.03c-.28.07-.49-.08-.46-.34.02-.25.24-.34.48-.19ZM168.63,275.9l.27-.07c.28-.07.41.09.29.35l-1.06,2.42c-.08.01-.15.03-.23.04l.18-2.09c.02-.29.27-.58.55-.65ZM167.23,274.84l.17-.04c.28-.07.49.07.47.32-.02.24-.24.33-.5.2l-.19-.1c-.25-.13-.23-.3.05-.37ZM165.73,275.92l.25-.37c.16-.24.49-.32.75-.19l.39.21c.25.13.3.29.1.34-.2.05-.52.13-.71.18-.2.05-.52.13-.71.18-.2.05-.23-.1-.07-.34ZM165.1,275.38l.17-.04c.28-.07.38.07.22.31l-.12.18c-.16.24-.4.27-.53.06-.13-.2-.02-.43.26-.5ZM164,276.33l.09-.15c.14-.25.37-.28.51-.06s.03.45-.25.52l-.1.03c-.28.07-.39-.08-.25-.32ZM164.19,277.45c-.23-.18-.18-.38.09-.45l.27-.07c.28-.07.63.07.79.31l1.15,1.75c-.07.02-.15.05-.22.07l-2.09-1.62ZM171.96,297.59c-4.69,1.19-9.45-1.65-10.64-6.34-1.19-4.69,1.65-9.45,6.34-10.64,4.69-1.19,9.45,1.65,10.64,6.34,1.19,4.69-1.65,9.45-6.34,10.64Z"/>
      <path class="st3" d="M179.74,280.86c-5.87,0-10.62,4.76-10.62,10.62s4.76,10.62,10.62,10.62,10.62-4.76,10.62-10.62c0-3.2-2.09-10.62-10.62-10.62ZM179.74,300.45c-4.95,0-8.97-4.02-8.97-8.97s4.02-8.97,8.97-8.97,8.97,4.02,8.97,8.97-4.02,8.97-8.97,8.97Z"/>
    </g>
    <g>
      <path class="st0" d="M156,311.35v1.84h-1.17v-.85h-3.45v-4.52h1.18v3.53h1.7v-3.53h1.18v3.53h.57Z"/>
      <path class="st0" d="M159.56,308.82h-1.4v.76h1.32v1h-1.32v.78h1.4v1h-2.57v-4.52h2.57v1Z"/>
      <path class="st0" d="M161.91,312.34h-1.18v-4.52h1.87c.51,0,.9.13,1.17.4.27.26.41.64.41,1.12s-.13.85-.41,1.12c-.27.26-.66.4-1.17.4h-.7v1.5ZM161.91,309.9h.39c.43,0,.65-.19.65-.56s-.22-.56-.65-.56h-.39v1.13Z"/>
      <path class="st0" d="M167.71,308.82h-1.4v.76h1.32v1h-1.32v.78h1.4v1h-2.57v-4.52h2.57v1Z"/>
      <path class="st0" d="M168.68,312.34l.77-4.52h1.16l.91,2.41.9-2.41h1.16l.77,4.52h-1.17l-.39-2.6-1.07,2.6h-.47l-1.01-2.6-.39,2.6h-1.17Z"/>
      <path class="st0" d="M175.22,310.08c0-.34.06-.65.19-.94s.3-.54.52-.76c.22-.22.48-.38.79-.51.31-.12.64-.18,1.01-.18s.7.06,1.01.18c.31.12.57.29.79.51.22.22.39.47.52.76s.19.6.19.94-.06.65-.19.94-.3.54-.52.76c-.22.22-.49.38-.79.51-.31.12-.64.18-1.01.18s-.71-.06-1.01-.18c-.31-.12-.57-.29-.79-.51-.22-.22-.39-.47-.52-.76s-.19-.6-.19-.94ZM176.45,310.08c0,.18.03.35.1.5.07.15.16.28.28.4s.25.2.41.26c.15.06.32.09.49.09s.34-.03.49-.09c.15-.06.29-.15.41-.26s.21-.24.28-.4c.07-.15.1-.32.1-.5s-.03-.35-.1-.5c-.07-.15-.16-.28-.28-.4s-.25-.2-.41-.26c-.15-.06-.32-.09-.49-.09s-.34.03-.49.09c-.15.06-.29.15-.41.26s-.21.24-.28.4c-.07.15-.1.32-.1.5Z"/>
      <path class="st0" d="M182.48,309.57h1.7v-1.75h1.18v4.52h-1.18v-1.87h-1.7v1.87h-1.18v-4.52h1.18v1.75Z"/>
      <path class="st0" d="M187.81,307.82v2.77l2.17-2.77h1.18v4.52h-1.18v-2.77l-2.17,2.77h-1.18v-4.52h1.18Z"/>
      <path class="st0" d="M193.39,310.49c-.32-.08-.57-.22-.74-.43s-.25-.49-.25-.84c0-.2.03-.38.1-.55.07-.17.16-.32.29-.44s.28-.23.47-.3c.19-.07.4-.11.64-.11h1.83v4.52h-1.17v-1.74l-1.12,1.74h-1.47l1.42-1.85ZM194.56,308.73h-.23c-.23,0-.41.05-.53.14-.13.1-.19.23-.19.41s.06.32.19.41c.13.1.3.14.53.14h.23v-1.12Z"/>
      <path class="st0" d="M145.23,319.34h-.98v-2.94h-1.42v2.94h-.98v-3.77h3.38v3.77Z"/>
      <path class="st0" d="M148.6,318.69h-1.4l-.22.66h-1.04l1.43-3.77h1.07l1.43,3.77h-1.04l-.22-.66ZM148.35,317.94l-.44-1.25-.44,1.25h.88Z"/>
      <path class="st0" d="M153.3,316.83c-.23-.28-.51-.42-.84-.42-.15,0-.28.03-.41.08-.12.05-.23.13-.32.22s-.16.2-.21.33c-.05.13-.08.26-.08.41s.03.29.08.42c.05.13.12.24.22.33.09.09.2.17.32.22.12.05.26.08.4.08.31,0,.6-.13.85-.4v1.16l-.1.04c-.15.05-.29.09-.42.12-.13.02-.26.04-.38.04-.26,0-.51-.05-.75-.15-.24-.1-.45-.24-.63-.42-.18-.18-.33-.39-.44-.63-.11-.25-.17-.51-.17-.8s.05-.56.16-.8c.11-.24.25-.45.43-.62.18-.18.39-.31.63-.41s.49-.15.75-.15c.15,0,.3.02.44.05.15.03.3.08.46.15v1.17Z"/>
      <path class="st0" d="M156.5,318.69h-1.4l-.22.66h-1.04l1.43-3.77h1.07l1.43,3.77h-1.04l-.22-.66ZM156.24,317.94l-.44-1.25-.44,1.25h.88Z"/>
      <path class="st0" d="M159.46,319.34h-.98v-3.77h1.56c.42,0,.75.11.97.33.22.22.34.53.34.93s-.11.71-.34.93c-.23.22-.55.33-.97.33h-.58v1.25ZM159.46,317.3h.33c.36,0,.54-.16.54-.47s-.18-.47-.54-.47h-.33v.94Z"/>
      <path class="st0" d="M164.29,316.4h-1.17v.63h1.1v.83h-1.1v.65h1.17v.83h-2.15v-3.77h2.15v.83Z"/>
      <path class="st0" d="M165.06,318.6s.03,0,.05,0c.19,0,.28-.14.28-.43v-2.6h3.08v3.77h-.98v-2.94h-1.13v1.78c0,.19-.03.36-.08.51s-.14.29-.25.4-.24.2-.39.26c-.15.06-.32.09-.51.09h-.08v-.85Z"/>
      <path class="st0" d="M171.31,318.6s.03,0,.05,0c.19,0,.28-.14.28-.43v-2.6h3.08v3.77h-.98v-2.94h-1.13v1.78c0,.19-.03.36-.08.51s-.14.29-.25.4-.24.2-.39.26c-.15.06-.32.09-.51.09h-.08v-.85Z"/>
      <path class="st0" d="M177.93,316.4h-1.17v.63h1.1v.83h-1.1v.65h1.17v.83h-2.15v-3.77h2.15v.83Z"/>
      <path class="st0" d="M179.89,315.57v2.31l1.8-2.31h.98v3.77h-.98v-2.31l-1.8,2.31h-.98v-3.77h.98ZM180.39,314.34c.05.22.2.33.44.33s.4-.11.45-.33h.63c-.01.27-.12.48-.31.64-.18.15-.44.23-.77.23s-.58-.08-.77-.23c-.19-.15-.29-.37-.3-.64h.63Z"/>
      <path class="st0" d="M184.72,317.13l1.2-1.56h1.21l-1.5,1.79,1.63,1.99h-1.27l-1.28-1.63v1.63h-.98v-3.77h.98v1.56Z"/>
      <path class="st0" d="M190.93,317.13l1.2-1.56h1.21l-1.5,1.79,1.63,1.99h-1.27l-1.28-1.63v1.63h-.98v-3.77h.98v1.56Z"/>
      <path class="st0" d="M193.98,318.6s.03,0,.05,0c.19,0,.28-.14.28-.43v-2.6h3.08v3.77h-.98v-2.94h-1.13v1.78c0,.19-.03.36-.08.51s-.14.29-.25.4-.24.2-.39.26c-.15.06-.32.09-.51.09h-.08v-.85Z"/>
      <path class="st0" d="M198.08,315.57h1.17l.77,1.42.84-1.42h1.08l-2.46,3.77h-.99l.92-1.46-1.34-2.31Z"/>
      <path class="st0" d="M204.25,316.83c.42,0,.73.11.95.32.22.21.33.53.33.95,0,.19-.03.36-.08.51s-.14.28-.25.39-.25.19-.41.25c-.16.06-.35.09-.56.09h-1.68v-3.77h2.28v.83h-1.3v.42h.73ZM203.52,318.55h.45c.36,0,.54-.16.54-.47,0-.16-.04-.28-.13-.36-.08-.07-.22-.11-.41-.11h-.44v.94Z"/>
      <path class="st0" d="M165.3,322.82h-.66v-1h1.84v4.52h-1.18v-3.53Z"/>
      <path class="st0" d="M169.33,323.96c-.47-.2-.71-.53-.71-1,0-.19.04-.37.11-.52.08-.15.18-.29.31-.4.13-.11.3-.2.49-.26.19-.06.4-.09.63-.09s.44.03.63.09c.19.06.35.15.49.26.13.11.24.24.31.4s.11.33.11.52c0,.12-.01.23-.04.32-.02.09-.07.18-.12.26-.06.08-.13.15-.23.22-.09.07-.21.13-.35.2.62.24.92.63.92,1.16,0,.19-.04.37-.13.53s-.21.31-.36.43c-.15.12-.34.21-.55.28-.21.07-.44.1-.69.1s-.47-.03-.68-.1c-.21-.07-.39-.16-.55-.28-.16-.12-.28-.26-.37-.43s-.13-.34-.13-.54c0-.55.3-.94.89-1.16ZM169.62,324.98c0,.08.01.15.04.22.03.07.07.13.11.18.05.05.1.09.17.12.07.03.14.04.21.04s.14-.01.21-.04c.07-.03.12-.07.17-.12.05-.05.09-.11.12-.17.03-.07.04-.14.04-.21,0-.15-.05-.28-.16-.39-.11-.11-.23-.16-.38-.16s-.28.05-.38.16c-.1.11-.16.23-.16.38ZM169.67,322.97c0,.14.05.26.14.36.1.1.21.15.35.15.07,0,.14-.01.2-.04.06-.03.11-.07.16-.11s.08-.1.11-.16c.03-.06.04-.12.04-.19,0-.14-.05-.25-.14-.35-.1-.1-.21-.15-.35-.15s-.26.05-.35.14c-.1.1-.14.21-.14.35Z"/>
      <path class="st0" d="M172.85,323.75c0-.1.02-.19.05-.27s.09-.16.15-.23.14-.11.22-.15.18-.05.27-.05.19.02.27.05.16.09.22.15.11.14.15.23.05.18.05.27-.02.19-.05.27-.09.16-.15.22c-.06.06-.14.11-.22.15s-.18.05-.27.05-.19-.02-.27-.05-.16-.09-.22-.15c-.06-.06-.11-.14-.15-.22s-.05-.18-.05-.27ZM172.85,325.77c0-.1.02-.19.05-.27.04-.09.09-.16.15-.22s.14-.11.22-.15c.09-.04.18-.05.27-.05s.19.02.27.05c.09.04.16.09.22.15s.11.14.15.22c.04.09.05.18.05.27s-.02.19-.05.27c-.04.09-.09.16-.15.23s-.14.11-.22.15c-.09.04-.18.05-.27.05s-.19-.02-.27-.05c-.09-.04-.16-.09-.22-.15s-.11-.14-.15-.23c-.04-.09-.05-.18-.05-.27Z"/>
      <path class="st0" d="M176.7,323.58s.06,0,.08,0h.06c.15,0,.27-.04.36-.13.09-.09.14-.2.14-.34s-.04-.25-.13-.33-.2-.13-.33-.13c-.14,0-.26.05-.35.14-.09.1-.13.22-.13.37h-1.09c.03-.24.09-.45.18-.63.09-.18.21-.34.34-.47.14-.13.3-.22.49-.29.19-.07.4-.1.62-.1s.43.03.61.09c.18.06.34.15.47.26.13.11.23.25.3.41s.11.34.11.54c0,.22-.04.39-.12.53-.08.14-.2.26-.35.36.23.07.41.2.54.39.13.19.2.42.2.69,0,.22-.04.43-.13.61-.09.18-.21.34-.37.47s-.35.23-.56.31c-.22.07-.46.11-.72.11-.35,0-.66-.07-.94-.2-.28-.14-.5-.35-.67-.65-.08-.13-.13-.26-.15-.4-.03-.13-.04-.27-.04-.4h1.16c0,.21.07.37.19.48.12.11.27.17.47.17.21,0,.36-.06.46-.17.1-.11.14-.25.14-.41,0-.2-.06-.34-.17-.44-.12-.1-.25-.15-.41-.15-.04,0-.08,0-.11,0s-.08.01-.12.02v-.74Z"/>
      <path class="st0" d="M179.43,324.08c0-.36.05-.69.14-.98s.23-.54.4-.75.37-.37.61-.48c.23-.11.49-.17.78-.17s.54.06.77.17c.24.11.44.28.61.48s.3.46.39.75c.09.29.14.62.14.98s-.05.69-.14.98c-.09.29-.23.55-.39.76s-.37.37-.61.49c-.24.11-.49.17-.77.17s-.54-.06-.78-.17c-.23-.11-.44-.28-.61-.49s-.3-.46-.4-.76-.14-.62-.14-.98ZM180.6,324.08c0,.2.02.38.05.55.04.16.09.31.15.43.07.12.14.21.24.28.09.07.2.1.31.1s.21-.03.31-.1c.09-.07.17-.16.24-.28s.11-.26.15-.43c.04-.16.05-.35.05-.55s-.02-.38-.05-.54-.09-.31-.15-.43-.14-.21-.24-.28c-.09-.07-.2-.1-.31-.1s-.22.03-.31.1c-.09.07-.17.16-.24.28-.07.12-.12.26-.15.43s-.05.35-.05.54Z"/>
    </g>
  </g>
  <g>
    <g>
      <g>
        <path class="st1" d="M256.69,235.82c-.38-.14-.72-.2-1-.18l-.3.02c-.59.03-1.22.44-1.89,1.22h-.03c-.2-.7-.5-1.25-.91-1.65-.58-.46-1.23-.59-1.81-.56-.93.05-1.6.46-2.02,1.23-.2.4-.26.86-.26.86-.03.22-.04.44-.02.66.09,1.49,1.27,3.74,3.55,6.75,1.94-1.11,3.52-2.21,4.75-3.31.76-.79,1.24-1.51,1.44-2.15.15-.6.1-.87.1-.87-.06-.92-.59-1.59-1.59-2.02Z"/>
        <path class="st1" d="M264.21,231.37c-.21.02-.38.06-.51.13l-.14.07c-.27.14-.32.03-.48.54l-.18.45c-.25-.29-.51-.49-.78-.59-.37-.1-.71-.02-.98.12-.43.22-.66.56-.7,1.01-.01.23.06.46.06.46.03.11.08.22.13.32.36.69,1.4,1.51,3.12,2.46.69-.94,1.2-1.8,1.56-2.58.19-.54.27-.98.23-1.33-.05-.32-.14-.43-.14-.43-.22-.42-.62-.63-1.19-.62Z"/>
      </g>
      <path class="st1" d="M274.06,239.61v-1.8s-14.16,4.4-14.16,4.4v13.06c-.46-.15-.97-.23-1.51-.23-2.04,0-3.7,1.19-3.7,2.65s1.65,2.65,3.7,2.65,3.7-1.19,3.7-2.65c0-.16-.03-.31-.06-.47v-10.94l9.95-3.19v8.52c-.48-.16-1.01-.26-1.57-.26-2.04,0-3.7,1.18-3.7,2.65s1.65,2.65,3.7,2.65,3.7-1.19,3.7-2.65c0-.18-.03-.36-.07-.53l.07-.02-.04-13.84Z"/>
    </g>
    <g>
      <path class="st0" d="M234.69,265.44h1.75c.42,0,.73.1.95.3.22.2.32.49.32.86,0,.23-.04.42-.12.57-.08.15-.21.28-.38.38.17.03.31.08.43.15.12.07.21.15.29.24.07.1.13.2.16.32s.05.25.05.38c0,.21-.04.4-.11.56-.07.16-.18.3-.31.41-.13.11-.3.2-.49.25-.19.06-.41.08-.65.08h-1.89v-4.52ZM235.87,267.21h.22c.37,0,.55-.15.55-.44s-.18-.44-.55-.44h-.22v.88ZM235.87,269.05h.26c.3,0,.51-.04.64-.11s.19-.2.19-.37-.06-.29-.19-.37c-.13-.08-.34-.11-.64-.11h-.26v.96Z"/>
      <path class="st0" d="M241.75,266.43h-1.4v.76h1.32v1h-1.32v.78h1.4v1h-2.57v-4.52h2.57v1Z"/>
      <path class="st0" d="M245.8,268.71c-.14.02-.27.03-.38.04-.11,0-.22,0-.33,0-.34,0-.65-.04-.92-.11-.27-.08-.5-.2-.68-.36-.18-.16-.32-.37-.42-.63-.1-.25-.14-.56-.14-.92v-1.3h1.18v1.13c0,.22.02.4.05.54.03.15.09.26.18.35s.2.15.34.19.32.06.53.06c.09,0,.18,0,.28-.01.09,0,.2-.02.33-.04v-2.23h1.18v4.52h-1.18v-1.25Z"/>
      <path class="st0" d="M250.83,266.43h-1.4v.76h1.32v1h-1.32v.78h1.4v1h-2.57v-4.52h2.57v1Z"/>
      <path class="st0" d="M253.18,269.96h-1.18v-4.52h1.87c.51,0,.9.13,1.17.4.27.26.41.64.41,1.12s-.13.85-.41,1.12c-.27.26-.66.4-1.17.4h-.7v1.5ZM253.18,267.51h.39c.43,0,.65-.19.65-.56s-.22-.56-.65-.56h-.39v1.13Z"/>
      <path class="st0" d="M257.37,268.11c-.32-.08-.57-.22-.74-.43s-.25-.49-.25-.84c0-.2.03-.38.1-.55.07-.17.16-.32.29-.44s.28-.23.47-.3c.19-.07.4-.11.64-.11h1.83v4.52h-1.17v-1.74l-1.12,1.74h-1.47l1.42-1.85ZM258.54,266.34h-.23c-.23,0-.41.05-.53.14-.13.1-.19.23-.19.41s.06.32.19.41c.13.1.3.14.53.14h.23v-1.12Z"/>
      <path class="st0" d="M266.37,268.23c.24-.23.44-.44.59-.65l.67.64c-.07.09-.15.19-.23.28s-.18.19-.3.3l-.09.08,1.01,1.07h-1.46l-.4-.41c-.54.36-1.06.54-1.55.54-.21,0-.41-.03-.58-.1-.18-.06-.33-.15-.46-.27s-.23-.25-.3-.41-.11-.33-.11-.52c0-.17.02-.32.07-.45s.12-.25.24-.38c.08-.09.18-.17.28-.24.1-.07.23-.13.38-.2l.13-.06-.08-.09c-.23-.29-.35-.57-.35-.83,0-.18.04-.34.11-.49s.17-.28.3-.39c.13-.11.28-.2.45-.26.17-.06.36-.09.56-.09s.39.03.56.09c.17.06.32.15.45.26.13.11.22.24.29.39.07.15.11.31.11.49,0,.12-.01.23-.04.33-.03.1-.08.19-.14.28-.07.09-.15.17-.26.25-.11.08-.24.16-.39.24l.57.6ZM264.79,268.07c-.28.18-.43.35-.43.53,0,.06.01.12.04.18.03.05.07.1.11.14.05.04.1.07.17.09.06.02.13.03.2.03.2,0,.41-.07.62-.2l-.71-.77ZM265.28,267.09c.28-.17.42-.36.42-.56,0-.11-.04-.21-.11-.29s-.17-.12-.29-.12c-.11,0-.2.04-.27.11-.07.07-.11.16-.11.27,0,.14.12.34.35.6Z"/>
      <path class="st0" d="M275.23,269.96h-1.18v-3.53h-1.7v3.53h-1.18v-4.52h4.05v4.52Z"/>
      <path class="st0" d="M279.28,269.17h-1.68l-.27.79h-1.25l1.72-4.52h1.28l1.72,4.52h-1.25l-.27-.79ZM278.97,268.28l-.53-1.51-.53,1.51h1.06Z"/>
      <path class="st0" d="M282.84,269.96h-1.18v-4.52h1.87c.51,0,.9.13,1.17.4.27.26.41.64.41,1.12s-.13.85-.41,1.12c-.27.26-.66.4-1.17.4h-.7v1.5ZM282.84,267.51h.39c.43,0,.65-.19.65-.56s-.22-.56-.65-.56h-.39v1.13Z"/>
      <path class="st0" d="M287.77,266.43v3.53h-1.18v-3.53h-.97v-1h3.11v1h-.97Z"/>
      <path class="st0" d="M290.77,265.44v2.77l2.17-2.77h1.18v4.52h-1.18v-2.77l-2.17,2.77h-1.18v-4.52h1.18Z"/>
      <path class="st0" d="M236.08,276.96h-.98v-2.94h-1.42v2.94h-.98v-3.77h3.38v3.77Z"/>
      <path class="st0" d="M239.45,276.31h-1.4l-.22.66h-1.04l1.43-3.77h1.07l1.43,3.77h-1.04l-.22-.66ZM239.19,275.56l-.44-1.25-.44,1.25h.88Z"/>
      <path class="st0" d="M244.15,274.45c-.23-.28-.51-.42-.84-.42-.15,0-.28.03-.41.08-.12.05-.23.13-.32.22s-.16.2-.21.33c-.05.13-.08.26-.08.41s.03.29.08.42c.05.13.12.24.22.33.09.09.2.17.32.22.12.05.26.08.4.08.31,0,.6-.13.85-.4v1.16l-.1.04c-.15.05-.29.09-.42.12-.13.02-.26.04-.38.04-.26,0-.51-.05-.75-.15-.24-.1-.45-.24-.63-.42-.18-.18-.33-.39-.44-.63-.11-.25-.17-.51-.17-.8s.05-.56.16-.8c.11-.24.25-.45.43-.62.18-.18.39-.31.63-.41s.49-.15.75-.15c.15,0,.3.02.44.05.15.03.3.08.46.15v1.17Z"/>
      <path class="st0" d="M247.35,276.31h-1.4l-.22.66h-1.04l1.43-3.77h1.07l1.43,3.77h-1.04l-.22-.66ZM247.09,275.56l-.44-1.25-.44,1.25h.88Z"/>
      <path class="st0" d="M250.31,276.96h-.98v-3.77h1.56c.42,0,.75.11.97.33.22.22.34.53.34.93s-.11.71-.34.93c-.23.22-.55.33-.97.33h-.58v1.25ZM250.31,274.92h.33c.36,0,.54-.16.54-.47s-.18-.47-.54-.47h-.33v.94Z"/>
      <path class="st0" d="M255.14,274.02h-1.17v.63h1.1v.83h-1.1v.65h1.17v.83h-2.15v-3.77h2.15v.83Z"/>
      <path class="st0" d="M255.91,276.22s.03,0,.05,0c.19,0,.28-.14.28-.43v-2.6h3.08v3.77h-.98v-2.94h-1.13v1.78c0,.19-.03.36-.08.51s-.14.29-.25.4-.24.2-.39.26c-.15.06-.32.09-.51.09h-.08v-.85Z"/>
      <path class="st0" d="M262.16,276.22s.03,0,.05,0c.19,0,.28-.14.28-.43v-2.6h3.08v3.77h-.98v-2.94h-1.13v1.78c0,.19-.03.36-.08.51s-.14.29-.25.4-.24.2-.39.26c-.15.06-.32.09-.51.09h-.08v-.85Z"/>
      <path class="st0" d="M268.78,274.02h-1.17v.63h1.1v.83h-1.1v.65h1.17v.83h-2.15v-3.77h2.15v.83Z"/>
      <path class="st0" d="M270.74,273.19v2.31l1.8-2.31h.98v3.77h-.98v-2.31l-1.8,2.31h-.98v-3.77h.98ZM271.24,271.96c.05.22.2.33.44.33s.4-.11.45-.33h.63c-.01.27-.12.48-.31.64-.18.15-.44.23-.77.23s-.58-.08-.77-.23c-.19-.15-.29-.37-.3-.64h.63Z"/>
      <path class="st0" d="M275.57,274.75l1.2-1.56h1.21l-1.5,1.79,1.63,1.99h-1.27l-1.28-1.63v1.63h-.98v-3.77h.98v1.56Z"/>
      <path class="st0" d="M281.78,274.75l1.2-1.56h1.21l-1.5,1.79,1.63,1.99h-1.27l-1.28-1.63v1.63h-.98v-3.77h.98v1.56Z"/>
      <path class="st0" d="M284.83,276.22s.03,0,.05,0c.19,0,.28-.14.28-.43v-2.6h3.08v3.77h-.98v-2.94h-1.13v1.78c0,.19-.03.36-.08.51s-.14.29-.25.4-.24.2-.39.26c-.15.06-.32.09-.51.09h-.08v-.85Z"/>
      <path class="st0" d="M288.92,273.19h1.17l.77,1.42.84-1.42h1.08l-2.46,3.77h-.99l.92-1.46-1.34-2.31Z"/>
      <path class="st0" d="M295.1,274.45c.42,0,.73.11.95.32.22.21.33.53.33.95,0,.19-.03.36-.08.51s-.14.28-.25.39-.25.19-.41.25c-.16.06-.35.09-.56.09h-1.68v-3.77h2.28v.83h-1.3v.42h.73ZM294.37,276.17h.45c.36,0,.54-.16.54-.47,0-.16-.04-.28-.13-.36-.08-.07-.22-.11-.41-.11h-.44v.94Z"/>
      <path class="st0" d="M256.15,280.43h-.66v-1h1.84v4.52h-1.18v-3.53Z"/>
      <path class="st0" d="M259.82,283.96l1.28-1.48h-.02c-.11.07-.2.11-.28.12-.07.01-.14.02-.19.02-.22,0-.42-.04-.61-.13-.19-.08-.35-.2-.48-.35-.13-.15-.24-.32-.31-.51-.08-.2-.11-.41-.11-.63,0-.24.04-.46.13-.67s.21-.39.38-.54.37-.28.6-.36c.24-.09.5-.13.8-.13s.57.04.8.13.44.21.6.36.29.33.38.53.13.42.13.64c0,.26-.06.53-.17.83s-.29.59-.53.88l-1.05,1.27h-1.36ZM261.76,280.99c0-.1-.02-.2-.06-.29-.04-.09-.09-.17-.16-.24s-.15-.12-.24-.16-.19-.06-.29-.06-.2.02-.29.06-.17.09-.24.16-.12.15-.16.24c-.04.09-.06.19-.06.29s.02.2.06.29c.04.09.09.17.16.24s.15.12.24.16.19.06.29.06.2-.02.29-.06.17-.09.24-.16.12-.15.16-.24c.04-.09.06-.19.06-.29Z"/>
      <path class="st0" d="M263.7,281.36c0-.1.02-.19.05-.27s.09-.16.15-.23.14-.11.22-.15.18-.05.27-.05.19.02.27.05.16.09.22.15.11.14.15.23.05.18.05.27-.02.19-.05.27-.09.16-.15.22c-.06.06-.14.11-.22.15s-.18.05-.27.05-.19-.02-.27-.05-.16-.09-.22-.15c-.06-.06-.11-.14-.15-.22s-.05-.18-.05-.27ZM263.7,283.38c0-.1.02-.19.05-.27.04-.09.09-.16.15-.22s.14-.11.22-.15c.09-.04.18-.05.27-.05s.19.02.27.05c.09.04.16.09.22.15s.11.14.15.22c.04.09.05.18.05.27s-.02.19-.05.27c-.04.09-.09.16-.15.23s-.14.11-.22.15c-.09.04-.18.05-.27.05s-.19-.02-.27-.05c-.09-.04-.16-.09-.22-.15s-.11-.14-.15-.23c-.04-.09-.05-.18-.05-.27Z"/>
      <path class="st0" d="M267.54,281.2s.06,0,.08,0h.06c.15,0,.27-.04.36-.13.09-.09.14-.2.14-.34s-.04-.25-.13-.33-.2-.13-.33-.13c-.14,0-.26.05-.35.14-.09.1-.13.22-.13.37h-1.09c.03-.24.09-.45.18-.63.09-.18.21-.34.34-.47.14-.13.3-.22.49-.29.19-.07.4-.1.62-.1s.43.03.61.09c.18.06.34.15.47.26.13.11.23.25.3.41s.11.34.11.54c0,.22-.04.39-.12.53-.08.14-.2.26-.35.36.23.07.41.2.54.39.13.19.2.42.2.69,0,.22-.04.43-.13.61-.09.18-.21.34-.37.47s-.35.23-.56.31c-.22.07-.46.11-.72.11-.35,0-.66-.07-.94-.2-.28-.14-.5-.35-.67-.65-.08-.13-.13-.26-.15-.4-.03-.13-.04-.27-.04-.4h1.16c0,.21.07.37.19.48.12.11.27.17.47.17.21,0,.36-.06.46-.17.1-.11.14-.25.14-.41,0-.2-.06-.34-.17-.44-.12-.1-.25-.15-.41-.15-.04,0-.08,0-.11,0s-.08.01-.12.02v-.74Z"/>
      <path class="st0" d="M270.28,281.69c0-.36.05-.69.14-.98s.23-.54.4-.75.37-.37.61-.48c.23-.11.49-.17.78-.17s.54.06.77.17c.24.11.44.28.61.48s.3.46.39.75c.09.29.14.62.14.98s-.05.69-.14.98c-.09.29-.23.55-.39.76s-.37.37-.61.49c-.24.11-.49.17-.77.17s-.54-.06-.78-.17c-.23-.11-.44-.28-.61-.49s-.3-.46-.4-.76-.14-.62-.14-.98ZM271.44,281.69c0,.2.02.38.05.55.04.16.09.31.15.43.07.12.14.21.24.28.09.07.2.1.31.1s.21-.03.31-.1c.09-.07.17-.16.24-.28s.11-.26.15-.43c.04-.16.05-.35.05-.55s-.02-.38-.05-.54-.09-.31-.15-.43-.14-.21-.24-.28c-.09-.07-.2-.1-.31-.1s-.22.03-.31.1c-.09.07-.17.16-.24.28-.07.12-.12.26-.15.43s-.05.35-.05.54Z"/>
    </g>
  </g>
  <g>
    <g>
      <g>
        <path class="st5" d="M64.17,172.3c-.02,14.03,18.87,22.09,24.31,23.77,6.35,1.97,12.81,3.41,19.45,3.62,6.8.22,13.93.19,19.92,3.4,8.33,4.46,12.46,14.14,14.19,23.43,1.26,6.77,2.79,14.21,7.36,19.37,7.23,8.17,15.4,7.95,19.84,8.17,8.66.43,16.55-.75,25.52.91,3.95.73,8.01,3.92,10.88,6.72,5.05,4.93,8.88,16.51,7.18,11.68,3.5,9.96,3.3,11.64,5.94,15.72,3.57,5.52,12.85,14.49,40.39,10.29,10.05-1.53,19.74-1.85,26.15-.38"/>
        <circle class="st6" cx="141.15" cy="223.04" r="3.27"/>
      </g>
      <g>
        <circle class="st4" cx="90.86" cy="196.67" r="3.27"/>
        <circle class="st6" cx="196.84" cy="255.75" r="3.27"/>
        <circle class="st6" cx="251.44" cy="300.01" r="3.27"/>
      </g>
    </g>
    <ellipse class="st0" cx="64.16" cy="172.14" rx="1.51" ry="1.58" transform="translate(-33.94 16.82) rotate(-11.84)"/>
    <circle class="st0" cx="285.3" cy="299.01" r="1.5"/>
  </g>
</svg>